<svg xmlns="http://www.w3.org/2000/svg" width="1200" height="320" viewBox="0 0 1200 320"><defs><linearGradient id="bg" x1="0" y1="0" x2="1" y2="1"><stop stop-color="#040406"/><stop offset=".58" stop-color="#0A0B0F"/><stop offset="1" stop-color="#160608"/></linearGradient><radialGradient id="glow" cx=".78" cy=".45" r=".6"><stop stop-color="#E01919" stop-opacity=".30"/><stop offset="1" stop-color="#E01919" stop-opacity="0"/></radialGradient><pattern id="grid" width="32" height="32" patternUnits="userSpaceOnUse"><path d="M32 0H0V32" fill="none" stroke="#FFFFFF" stroke-opacity=".035"/></pattern></defs><rect width="1200" height="320" rx="24" fill="url(#bg)"/><rect width="1200" height="320" rx="24" fill="url(#grid)"/><rect width="1200" height="320" rx="24" fill="url(#glow)"/><rect x="1" y="1" width="1198" height="318" rx="23" fill="none" stroke="#E01919" stroke-opacity=".35"/><rect x="68" y="58" width="56" height="5" rx="2.5" fill="#E01919"/><text x="68" y="102" font-family="Segoe UI,Arial,sans-serif" font-size="17" font-weight="800" fill="#E01919" letter-spacing="5">DPN TECHNOLOGY // ENGINEERING</text><text x="68" y="160" font-family="Segoe UI,Arial,sans-serif" font-size="42" font-weight="900" fill="#F5F5F7">DPN FiveM Resource Library</text><text x="68" y="201" font-family="Segoe UI,Arial,sans-serif" font-size="18" fill="#A5A7AE">QBCore • Unified Emergency Services • Hybrid • Standalone</text><text x="68" y="260" font-family="Consolas,monospace" font-size="13" font-weight="700" fill="#777B84" letter-spacing="3">DEVELOP  •  PIONEER  •  NAVIGATE  •  SHIP WITH CONTROL</text><g transform="translate(850 65)"><circle cx="128" cy="96" r="94" fill="none" stroke="#E01919" stroke-opacity=".22"/><circle cx="128" cy="96" r="70" fill="none" stroke="#E01919" stroke-opacity=".42" stroke-dasharray="5 9"/><circle cx="128" cy="96" r="42" fill="#0B0C10" stroke="#E01919" stroke-opacity=".65"/><circle cx="128" cy="96" r="10" fill="#E01919"/><path d="M128 2V190M34 96H222M61 29L195 163M195 29L61 163" stroke="#E01919" stroke-opacity=".20"/><path d="M128 96L184 62" stroke="#E01919" stroke-width="3" stroke-linecap="round"/><circle cx="184" cy="62" r="5" fill="#FFFFFF"/></g><g transform="translate(850 242)"><rect width="252" height="22" rx="11" fill="#0B0C10" stroke="#E01919" stroke-opacity=".28"/><rect x="7" y="7" width="8" height="8" rx="4" fill="#E01919"/><text x="25" y="15" dominant-baseline="middle" font-family="Consolas,monospace" font-size="10" font-weight="700" fill="#DADBE0" letter-spacing="1.2">RESOURCE CONTROL // ONLINE</text></g><rect x="850" y="286" width="252" height="2" fill="#E01919" fill-opacity=".65"/></svg>