# DPN Neuralizer custom model source
mtllib dpn_neuralizer_prop.mtl
o dpn_neuralizer_prop
v 0.040000 -0.142500 0.000000
v 0.040000 0.142500 0.000000
v 0.039231 -0.142500 0.007804
v 0.039231 0.142500 0.007804
v 0.036955 -0.142500 0.015307
v 0.036955 0.142500 0.015307
v 0.033259 -0.142500 0.022223
v 0.033259 0.142500 0.022223
v 0.028284 -0.142500 0.028284
v 0.028284 0.142500 0.028284
v 0.022223 -0.142500 0.033259
v 0.022223 0.142500 0.033259
v 0.015307 -0.142500 0.036955
v 0.015307 0.142500 0.036955
v 0.007804 -0.142500 0.039231
v 0.007804 0.142500 0.039231
v 0.000000 -0.142500 0.040000
v 0.000000 0.142500 0.040000
v -0.007804 -0.142500 0.039231
v -0.007804 0.142500 0.039231
v -0.015307 -0.142500 0.036955
v -0.015307 0.142500 0.036955
v -0.022223 -0.142500 0.033259
v -0.022223 0.142500 0.033259
v -0.028284 -0.142500 0.028284
v -0.028284 0.142500 0.028284
v -0.033259 -0.142500 0.022223
v -0.033259 0.142500 0.022223
v -0.036955 -0.142500 0.015307
v -0.036955 0.142500 0.015307
v -0.039231 -0.142500 0.007804
v -0.039231 0.142500 0.007804
v -0.040000 -0.142500 0.000000
v -0.040000 0.142500 0.000000
v -0.039231 -0.142500 -0.007804
v -0.039231 0.142500 -0.007804
v -0.036955 -0.142500 -0.015307
v -0.036955 0.142500 -0.015307
v -0.033259 -0.142500 -0.022223
v -0.033259 0.142500 -0.022223
v -0.028284 -0.142500 -0.028284
v -0.028284 0.142500 -0.028284
v -0.022223 -0.142500 -0.033259
v -0.022223 0.142500 -0.033259
v -0.015307 -0.142500 -0.036955
v -0.015307 0.142500 -0.036955
v -0.007804 -0.142500 -0.039231
v -0.007804 0.142500 -0.039231
v -0.000000 -0.142500 -0.040000
v -0.000000 0.142500 -0.040000
v 0.007804 -0.142500 -0.039231
v 0.007804 0.142500 -0.039231
v 0.015307 -0.142500 -0.036955
v 0.015307 0.142500 -0.036955
v 0.022223 -0.142500 -0.033259
v 0.022223 0.142500 -0.033259
v 0.028284 -0.142500 -0.028284
v 0.028284 0.142500 -0.028284
v 0.033259 -0.142500 -0.022223
v 0.033259 0.142500 -0.022223
v 0.036955 -0.142500 -0.015307
v 0.036955 0.142500 -0.015307
v 0.039231 -0.142500 -0.007804
v 0.039231 0.142500 -0.007804
v 0.000000 -0.142500 0.000000
v 0.000000 0.142500 0.000000
v 0.056000 0.140000 0.000000
v 0.056000 0.170000 0.000000
v 0.054924 0.140000 0.010925
v 0.054924 0.170000 0.010925
v 0.051737 0.140000 0.021430
v 0.051737 0.170000 0.021430
v 0.046562 0.140000 0.031112
v 0.046562 0.170000 0.031112
v 0.039598 0.140000 0.039598
v 0.039598 0.170000 0.039598
v 0.031112 0.140000 0.046562
v 0.031112 0.170000 0.046562
v 0.021430 0.140000 0.051737
v 0.021430 0.170000 0.051737
v 0.010925 0.140000 0.054924
v 0.010925 0.170000 0.054924
v 0.000000 0.140000 0.056000
v 0.000000 0.170000 0.056000
v -0.010925 0.140000 0.054924
v -0.010925 0.170000 0.054924
v -0.021430 0.140000 0.051737
v -0.021430 0.170000 0.051737
v -0.031112 0.140000 0.046562
v -0.031112 0.170000 0.046562
v -0.039598 0.140000 0.039598
v -0.039598 0.170000 0.039598
v -0.046562 0.140000 0.031112
v -0.046562 0.170000 0.031112
v -0.051737 0.140000 0.021430
v -0.051737 0.170000 0.021430
v -0.054924 0.140000 0.010925
v -0.054924 0.170000 0.010925
v -0.056000 0.140000 0.000000
v -0.056000 0.170000 0.000000
v -0.054924 0.140000 -0.010925
v -0.054924 0.170000 -0.010925
v -0.051737 0.140000 -0.021430
v -0.051737 0.170000 -0.021430
v -0.046562 0.140000 -0.031112
v -0.046562 0.170000 -0.031112
v -0.039598 0.140000 -0.039598
v -0.039598 0.170000 -0.039598
v -0.031112 0.140000 -0.046562
v -0.031112 0.170000 -0.046562
v -0.021430 0.140000 -0.051737
v -0.021430 0.170000 -0.051737
v -0.010925 0.140000 -0.054924
v -0.010925 0.170000 -0.054924
v -0.000000 0.140000 -0.056000
v -0.000000 0.170000 -0.056000
v 0.010925 0.140000 -0.054924
v 0.010925 0.170000 -0.054924
v 0.021430 0.140000 -0.051737
v 0.021430 0.170000 -0.051737
v 0.031112 0.140000 -0.046562
v 0.031112 0.170000 -0.046562
v 0.039598 0.140000 -0.039598
v 0.039598 0.170000 -0.039598
v 0.046562 0.140000 -0.031112
v 0.046562 0.170000 -0.031112
v 0.051737 0.140000 -0.021430
v 0.051737 0.170000 -0.021430
v 0.054924 0.140000 -0.010925
v 0.054924 0.170000 -0.010925
v 0.000000 0.140000 0.000000
v 0.000000 0.170000 0.000000
v 0.045000 0.169000 0.000000
v 0.045000 0.179000 0.000000
v 0.044135 0.169000 0.008779
v 0.044135 0.179000 0.008779
v 0.041575 0.169000 0.017221
v 0.041575 0.179000 0.017221
v 0.037416 0.169000 0.025001
v 0.037416 0.179000 0.025001
v 0.031820 0.169000 0.031820
v 0.031820 0.179000 0.031820
v 0.025001 0.169000 0.037416
v 0.025001 0.179000 0.037416
v 0.017221 0.169000 0.041575
v 0.017221 0.179000 0.041575
v 0.008779 0.169000 0.044135
v 0.008779 0.179000 0.044135
v 0.000000 0.169000 0.045000
v 0.000000 0.179000 0.045000
v -0.008779 0.169000 0.044135
v -0.008779 0.179000 0.044135
v -0.017221 0.169000 0.041575
v -0.017221 0.179000 0.041575
v -0.025001 0.169000 0.037416
v -0.025001 0.179000 0.037416
v -0.031820 0.169000 0.031820
v -0.031820 0.179000 0.031820
v -0.037416 0.169000 0.025001
v -0.037416 0.179000 0.025001
v -0.041575 0.169000 0.017221
v -0.041575 0.179000 0.017221
v -0.044135 0.169000 0.008779
v -0.044135 0.179000 0.008779
v -0.045000 0.169000 0.000000
v -0.045000 0.179000 0.000000
v -0.044135 0.169000 -0.008779
v -0.044135 0.179000 -0.008779
v -0.041575 0.169000 -0.017221
v -0.041575 0.179000 -0.017221
v -0.037416 0.169000 -0.025001
v -0.037416 0.179000 -0.025001
v -0.031820 0.169000 -0.031820
v -0.031820 0.179000 -0.031820
v -0.025001 0.169000 -0.037416
v -0.025001 0.179000 -0.037416
v -0.017221 0.169000 -0.041575
v -0.017221 0.179000 -0.041575
v -0.008779 0.169000 -0.044135
v -0.008779 0.179000 -0.044135
v -0.000000 0.169000 -0.045000
v -0.000000 0.179000 -0.045000
v 0.008779 0.169000 -0.044135
v 0.008779 0.179000 -0.044135
v 0.017221 0.169000 -0.041575
v 0.017221 0.179000 -0.041575
v 0.025001 0.169000 -0.037416
v 0.025001 0.179000 -0.037416
v 0.031820 0.169000 -0.031820
v 0.031820 0.179000 -0.031820
v 0.037416 0.169000 -0.025001
v 0.037416 0.179000 -0.025001
v 0.041575 0.169000 -0.017221
v 0.041575 0.179000 -0.017221
v 0.044135 0.169000 -0.008779
v 0.044135 0.179000 -0.008779
v 0.000000 0.169000 0.000000
v 0.000000 0.179000 0.000000
v 0.037000 -0.170000 0.000000
v 0.037000 -0.150000 0.000000
v 0.036289 -0.170000 0.007218
v 0.036289 -0.150000 0.007218
v 0.034184 -0.170000 0.014159
v 0.034184 -0.150000 0.014159
v 0.030764 -0.170000 0.020556
v 0.030764 -0.150000 0.020556
v 0.026163 -0.170000 0.026163
v 0.026163 -0.150000 0.026163
v 0.020556 -0.170000 0.030764
v 0.020556 -0.150000 0.030764
v 0.014159 -0.170000 0.034184
v 0.014159 -0.150000 0.034184
v 0.007218 -0.170000 0.036289
v 0.007218 -0.150000 0.036289
v 0.000000 -0.170000 0.037000
v 0.000000 -0.150000 0.037000
v -0.007218 -0.170000 0.036289
v -0.007218 -0.150000 0.036289
v -0.014159 -0.170000 0.034184
v -0.014159 -0.150000 0.034184
v -0.020556 -0.170000 0.030764
v -0.020556 -0.150000 0.030764
v -0.026163 -0.170000 0.026163
v -0.026163 -0.150000 0.026163
v -0.030764 -0.170000 0.020556
v -0.030764 -0.150000 0.020556
v -0.034184 -0.170000 0.014159
v -0.034184 -0.150000 0.014159
v -0.036289 -0.170000 0.007218
v -0.036289 -0.150000 0.007218
v -0.037000 -0.170000 0.000000
v -0.037000 -0.150000 0.000000
v -0.036289 -0.170000 -0.007218
v -0.036289 -0.150000 -0.007218
v -0.034184 -0.170000 -0.014159
v -0.034184 -0.150000 -0.014159
v -0.030764 -0.170000 -0.020556
v -0.030764 -0.150000 -0.020556
v -0.026163 -0.170000 -0.026163
v -0.026163 -0.150000 -0.026163
v -0.020556 -0.170000 -0.030764
v -0.020556 -0.150000 -0.030764
v -0.014159 -0.170000 -0.034184
v -0.014159 -0.150000 -0.034184
v -0.007218 -0.170000 -0.036289
v -0.007218 -0.150000 -0.036289
v -0.000000 -0.170000 -0.037000
v -0.000000 -0.150000 -0.037000
v 0.007218 -0.170000 -0.036289
v 0.007218 -0.150000 -0.036289
v 0.014159 -0.170000 -0.034184
v 0.014159 -0.150000 -0.034184
v 0.020556 -0.170000 -0.030764
v 0.020556 -0.150000 -0.030764
v 0.026163 -0.170000 -0.026163
v 0.026163 -0.150000 -0.026163
v 0.030764 -0.170000 -0.020556
v 0.030764 -0.150000 -0.020556
v 0.034184 -0.170000 -0.014159
v 0.034184 -0.150000 -0.014159
v 0.036289 -0.170000 -0.007218
v 0.036289 -0.150000 -0.007218
v 0.000000 -0.170000 0.000000
v 0.000000 -0.150000 0.000000
v -0.025000 -0.082500 -0.147000
v 0.025000 -0.082500 -0.147000
v 0.025000 0.002500 -0.147000
v -0.025000 0.002500 -0.147000
v -0.025000 -0.082500 -0.017000
v 0.025000 -0.082500 -0.017000
v 0.025000 0.002500 -0.017000
v -0.025000 0.002500 -0.017000
v -0.030000 -0.072500 -0.171000
v 0.030000 -0.072500 -0.171000
v 0.030000 -0.007500 -0.171000
v -0.030000 -0.007500 -0.171000
v -0.030000 -0.072500 -0.139000
v 0.030000 -0.072500 -0.139000
v 0.030000 -0.007500 -0.139000
v -0.030000 -0.007500 -0.139000
v -0.015000 -0.057500 0.043500
v 0.015000 -0.057500 0.043500
v 0.015000 0.107500 0.043500
v -0.015000 0.107500 0.043500
v -0.015000 -0.057500 0.068500
v 0.015000 -0.057500 0.068500
v 0.015000 0.107500 0.068500
v -0.015000 0.107500 0.068500
v -0.052000 -0.105000 -0.002000
v -0.032000 -0.105000 -0.002000
v -0.032000 0.105000 -0.002000
v -0.052000 0.105000 -0.002000
v -0.052000 -0.105000 0.018000
v -0.032000 -0.105000 0.018000
v -0.032000 0.105000 0.018000
v -0.052000 0.105000 0.018000
v 0.032000 -0.105000 -0.002000
v 0.052000 -0.105000 -0.002000
v 0.052000 0.105000 -0.002000
v 0.032000 0.105000 -0.002000
v 0.032000 -0.105000 0.018000
v 0.052000 -0.105000 0.018000
v 0.052000 0.105000 0.018000
v 0.032000 0.105000 0.018000
v -0.035000 -0.114000 0.043000
v 0.035000 -0.114000 0.043000
v 0.035000 -0.096000 0.043000
v -0.035000 -0.096000 0.043000
v -0.035000 -0.114000 0.061000
v 0.035000 -0.114000 0.061000
v 0.035000 -0.096000 0.061000
v -0.035000 -0.096000 0.061000
usemtl brushed_chrome
f 1 3 4 2
f 65 1 3
f 66 4 2
f 3 5 6 4
f 65 3 5
f 66 6 4
f 5 7 8 6
f 65 5 7
f 66 8 6
f 7 9 10 8
f 65 7 9
f 66 10 8
f 9 11 12 10
f 65 9 11
f 66 12 10
f 11 13 14 12
f 65 11 13
f 66 14 12
f 13 15 16 14
f 65 13 15
f 66 16 14
f 15 17 18 16
f 65 15 17
f 66 18 16
f 17 19 20 18
f 65 17 19
f 66 20 18
f 19 21 22 20
f 65 19 21
f 66 22 20
f 21 23 24 22
f 65 21 23
f 66 24 22
f 23 25 26 24
f 65 23 25
f 66 26 24
f 25 27 28 26
f 65 25 27
f 66 28 26
f 27 29 30 28
f 65 27 29
f 66 30 28
f 29 31 32 30
f 65 29 31
f 66 32 30
f 31 33 34 32
f 65 31 33
f 66 34 32
f 33 35 36 34
f 65 33 35
f 66 36 34
f 35 37 38 36
f 65 35 37
f 66 38 36
f 37 39 40 38
f 65 37 39
f 66 40 38
f 39 41 42 40
f 65 39 41
f 66 42 40
f 41 43 44 42
f 65 41 43
f 66 44 42
f 43 45 46 44
f 65 43 45
f 66 46 44
f 45 47 48 46
f 65 45 47
f 66 48 46
f 47 49 50 48
f 65 47 49
f 66 50 48
f 49 51 52 50
f 65 49 51
f 66 52 50
f 51 53 54 52
f 65 51 53
f 66 54 52
f 53 55 56 54
f 65 53 55
f 66 56 54
f 55 57 58 56
f 65 55 57
f 66 58 56
f 57 59 60 58
f 65 57 59
f 66 60 58
f 59 61 62 60
f 65 59 61
f 66 62 60
f 61 63 64 62
f 65 61 63
f 66 64 62
f 63 1 2 64
f 65 63 1
f 66 2 64
usemtl black_anodized
f 67 69 70 68
f 131 67 69
f 132 70 68
f 69 71 72 70
f 131 69 71
f 132 72 70
f 71 73 74 72
f 131 71 73
f 132 74 72
f 73 75 76 74
f 131 73 75
f 132 76 74
f 75 77 78 76
f 131 75 77
f 132 78 76
f 77 79 80 78
f 131 77 79
f 132 80 78
f 79 81 82 80
f 131 79 81
f 132 82 80
f 81 83 84 82
f 131 81 83
f 132 84 82
f 83 85 86 84
f 131 83 85
f 132 86 84
f 85 87 88 86
f 131 85 87
f 132 88 86
f 87 89 90 88
f 131 87 89
f 132 90 88
f 89 91 92 90
f 131 89 91
f 132 92 90
f 91 93 94 92
f 131 91 93
f 132 94 92
f 93 95 96 94
f 131 93 95
f 132 96 94
f 95 97 98 96
f 131 95 97
f 132 98 96
f 97 99 100 98
f 131 97 99
f 132 100 98
f 99 101 102 100
f 131 99 101
f 132 102 100
f 101 103 104 102
f 131 101 103
f 132 104 102
f 103 105 106 104
f 131 103 105
f 132 106 104
f 105 107 108 106
f 131 105 107
f 132 108 106
f 107 109 110 108
f 131 107 109
f 132 110 108
f 109 111 112 110
f 131 109 111
f 132 112 110
f 111 113 114 112
f 131 111 113
f 132 114 112
f 113 115 116 114
f 131 113 115
f 132 116 114
f 115 117 118 116
f 131 115 117
f 132 118 116
f 117 119 120 118
f 131 117 119
f 132 120 118
f 119 121 122 120
f 131 119 121
f 132 122 120
f 121 123 124 122
f 131 121 123
f 132 124 122
f 123 125 126 124
f 131 123 125
f 132 126 124
f 125 127 128 126
f 131 125 127
f 132 128 126
f 127 129 130 128
f 131 127 129
f 132 130 128
f 129 67 68 130
f 131 129 67
f 132 68 130
usemtl cyan_lens
f 133 135 136 134
f 197 133 135
f 198 136 134
f 135 137 138 136
f 197 135 137
f 198 138 136
f 137 139 140 138
f 197 137 139
f 198 140 138
f 139 141 142 140
f 197 139 141
f 198 142 140
f 141 143 144 142
f 197 141 143
f 198 144 142
f 143 145 146 144
f 197 143 145
f 198 146 144
f 145 147 148 146
f 197 145 147
f 198 148 146
f 147 149 150 148
f 197 147 149
f 198 150 148
f 149 151 152 150
f 197 149 151
f 198 152 150
f 151 153 154 152
f 197 151 153
f 198 154 152
f 153 155 156 154
f 197 153 155
f 198 156 154
f 155 157 158 156
f 197 155 157
f 198 158 156
f 157 159 160 158
f 197 157 159
f 198 160 158
f 159 161 162 160
f 197 159 161
f 198 162 160
f 161 163 164 162
f 197 161 163
f 198 164 162
f 163 165 166 164
f 197 163 165
f 198 166 164
f 165 167 168 166
f 197 165 167
f 198 168 166
f 167 169 170 168
f 197 167 169
f 198 170 168
f 169 171 172 170
f 197 169 171
f 198 172 170
f 171 173 174 172
f 197 171 173
f 198 174 172
f 173 175 176 174
f 197 173 175
f 198 176 174
f 175 177 178 176
f 197 175 177
f 198 178 176
f 177 179 180 178
f 197 177 179
f 198 180 178
f 179 181 182 180
f 197 179 181
f 198 182 180
f 181 183 184 182
f 197 181 183
f 198 184 182
f 183 185 186 184
f 197 183 185
f 198 186 184
f 185 187 188 186
f 197 185 187
f 198 188 186
f 187 189 190 188
f 197 187 189
f 198 190 188
f 189 191 192 190
f 197 189 191
f 198 192 190
f 191 193 194 192
f 197 191 193
f 198 194 192
f 193 195 196 194
f 197 193 195
f 198 196 194
f 195 133 134 196
f 197 195 133
f 198 134 196
usemtl red_status
f 199 201 202 200
f 263 199 201
f 264 202 200
f 201 203 204 202
f 263 201 203
f 264 204 202
f 203 205 206 204
f 263 203 205
f 264 206 204
f 205 207 208 206
f 263 205 207
f 264 208 206
f 207 209 210 208
f 263 207 209
f 264 210 208
f 209 211 212 210
f 263 209 211
f 264 212 210
f 211 213 214 212
f 263 211 213
f 264 214 212
f 213 215 216 214
f 263 213 215
f 264 216 214
f 215 217 218 216
f 263 215 217
f 264 218 216
f 217 219 220 218
f 263 217 219
f 264 220 218
f 219 221 222 220
f 263 219 221
f 264 222 220
f 221 223 224 222
f 263 221 223
f 264 224 222
f 223 225 226 224
f 263 223 225
f 264 226 224
f 225 227 228 226
f 263 225 227
f 264 228 226
f 227 229 230 228
f 263 227 229
f 264 230 228
f 229 231 232 230
f 263 229 231
f 264 232 230
f 231 233 234 232
f 263 231 233
f 264 234 232
f 233 235 236 234
f 263 233 235
f 264 236 234
f 235 237 238 236
f 263 235 237
f 264 238 236
f 237 239 240 238
f 263 237 239
f 264 240 238
f 239 241 242 240
f 263 239 241
f 264 242 240
f 241 243 244 242
f 263 241 243
f 264 244 242
f 243 245 246 244
f 263 243 245
f 264 246 244
f 245 247 248 246
f 263 245 247
f 264 248 246
f 247 249 250 248
f 263 247 249
f 264 250 248
f 249 251 252 250
f 263 249 251
f 264 252 250
f 251 253 254 252
f 263 251 253
f 264 254 252
f 253 255 256 254
f 263 253 255
f 264 256 254
f 255 257 258 256
f 263 255 257
f 264 258 256
f 257 259 260 258
f 263 257 259
f 264 260 258
f 259 261 262 260
f 263 259 261
f 264 262 260
f 261 199 200 262
f 263 261 199
f 264 200 262
usemtl black_anodized
f 265 266 267 268
f 269 272 271 270
f 265 269 270 266
f 266 270 271 267
f 267 271 272 268
f 268 272 269 265
usemtl brushed_chrome
f 273 274 275 276
f 277 280 279 278
f 273 277 278 274
f 274 278 279 275
f 275 279 280 276
f 276 280 277 273
usemtl cyan_lens
f 281 282 283 284
f 285 288 287 286
f 281 285 286 282
f 282 286 287 283
f 283 287 288 284
f 284 288 285 281
usemtl black_anodized
f 289 290 291 292
f 293 296 295 294
f 289 293 294 290
f 290 294 295 291
f 291 295 296 292
f 292 296 293 289
f 297 298 299 300
f 301 304 303 302
f 297 301 302 298
f 298 302 303 299
f 299 303 304 300
f 300 304 301 297
usemtl red_status
f 305 306 307 308
f 309 312 311 310
f 305 309 310 306
f 306 310 311 307
f 307 311 312 308
f 308 312 309 305
